# xmcd
#
# Track frame offsets: 
#        150
#        22653
#        34680
#        48601
#        71585
#        91845
#        109451
#        129642
#        140700
#        156843
#        169691
#
# Disc length: 2556 seconds
#
# Revision: 0
# Processed by: cddbd v1.5.2PL0 Copyright (c) Steve Scherf et al.
# Submitted via: ExactAudioCopyFreeDBPlugin 1.0
#
DISCID=9309fa0b
DTITLE=The Infamous Stringdusters - Silver Sky
DYEAR=2012
DGENRE=Bluegrass
TTITLE0=Walking On The Moon
TTITLE1=Don't Mean Nothin'
TTITLE2=Rockets
TTITLE3=The Hitchhiker
TTITLE4=Tears of the Earth
TTITLE5=The Place That I Call Home
TTITLE6=Like I Do
TTITLE7=Heady Festy
TTITLE8=Night On The River
TTITLE9=When the Night Comes Around
TTITLE10=Fire
EXTD=
EXTT0=
EXTT1=
EXTT2=
EXTT3=
EXTT4=
EXTT5=
EXTT6=
EXTT7=
EXTT8=
EXTT9=
EXTT10=
PLAYORDER=
